<svg width="183" height="183" viewBox="0 0 183 183" fill="none" xmlns="http://www.w3.org/2000/svg">
<circle cx="91.5" cy="91.5" r="91.5" fill="#2DD4BF"/>
<path fill-rule="evenodd" clip-rule="evenodd" d="M79.592 35.1268C75.508 35.7644 71.9551 38.9708 70.3616 42.3359C69.0919 45.0169 69.2503 47.0849 70.1059 48.0721C70.7303 48.7927 70.6525 49.883 69.9319 50.5075C69.2114 51.1319 68.1211 51.054 67.4966 50.3335C65.56 48.0989 65.6951 44.9345 66.7088 42.1336C63.7231 39.7739 60.4018 37.4505 56.6619 36.354C52.6186 35.1685 47.968 35.3856 42.5678 38.986C37.2426 42.5363 34.2596 48.5794 34.1108 54.4795C34.057 56.6126 34.372 58.7074 35.073 60.6486C35.0761 60.6565 35.0792 60.6644 35.0822 60.6724C35.0914 60.6965 35.1 60.7206 35.1081 60.7448C36.3444 64.0987 38.7395 66.9859 42.3822 68.8073C48.4447 71.8386 52.2011 71.0859 54.5957 69.5466C57.157 67.9001 58.6061 65.0857 59.4548 63.1762C59.842 62.3049 60.8622 61.9125 61.7335 62.2997C62.6048 62.687 62.9972 63.7072 62.61 64.5785C61.7322 66.5535 59.9441 70.2131 56.4628 72.451C52.8148 74.7961 47.7233 75.3383 40.838 71.8956C36.9178 69.9354 34.1883 66.9706 32.5484 63.5449C22.5535 68.1296 17.9667 78.2331 18.8987 87.7165C19.8664 97.5624 26.7774 106.637 39.9127 107.896C41.2502 106.102 42.9969 104.601 45.1709 103.543C46.0283 103.126 47.0615 103.483 47.4786 104.34C47.8957 105.198 47.5388 106.231 46.6814 106.648C43.2626 108.311 41.1369 111.47 40.3442 115.367C39.5474 119.283 40.1257 123.872 42.0964 128.105C44.7393 133.783 49.572 136.73 54.3426 138.129C59.1831 139.549 63.6967 139.295 65.2977 138.829L67.3352 138.237L67.5011 140.352C68.0034 146.757 75.0373 159.749 92.7557 159.717V119.499C85.9695 119.237 79.9438 118.08 75.748 116.695C74.8391 116.716 73.8969 116.837 72.8205 116.98L72.728 116.993C71.601 117.142 70.3401 117.31 69.009 117.339C66.1864 117.401 63.0813 116.841 59.5757 114.463C57.1267 112.802 54.9002 109.579 53.9766 106.038C53.0375 102.438 53.3863 98.2269 56.5484 94.8907C58.2543 93.0908 60.5128 92.3543 62.7377 92.1712C64.9524 91.9889 67.2672 92.3399 69.3096 92.8466C71.3655 93.3566 73.2321 94.0465 74.5778 94.6042C74.6139 94.6191 74.6496 94.634 74.685 94.6488C74.7724 94.2006 74.8753 93.716 74.9935 93.2257C75.2172 92.298 75.5136 91.2737 75.8963 90.4269C76.0865 90.0061 76.3301 89.5558 76.6467 89.1701C76.9481 88.8028 77.4598 88.3189 78.2188 88.163C79.3359 87.9335 80.3968 88.046 81.3475 88.4951C82.2754 88.9335 82.9811 89.6363 83.5153 90.4036C84.5562 91.899 85.1241 93.8979 85.4557 95.7146C85.7951 97.5741 85.9222 99.4514 85.9665 100.846C85.9764 101.158 85.9822 101.447 85.9853 101.709C86.4183 101.777 86.9423 101.855 87.5447 101.936C89.4202 102.189 92.0459 102.472 95.0405 102.59C101.086 102.828 108.404 102.385 114.109 99.8649C114.42 99.7275 114.749 99.6893 115.062 99.7365C115.176 99.7129 115.294 99.7005 115.414 99.7005C116.714 99.7005 117.943 99.798 119.147 99.8936C123.022 100.201 126.646 100.488 131.553 97.4503C133.427 96.29 135.389 93.7992 136.197 90.9716C136.983 88.2228 136.636 85.3754 134.287 83.1134C133.221 82.087 131.682 81.5372 129.761 81.3929C127.842 81.2488 125.701 81.5237 123.645 81.989C121.602 82.4517 119.719 83.0848 118.342 83.606C117.655 83.8657 117.099 84.0955 116.718 84.2589C116.528 84.3406 116.382 84.4055 116.285 84.4492C116.236 84.471 116.2 84.4875 116.177 84.4981L116.153 84.5094L116.148 84.5115L116.148 84.5117L114.03 85.5066L113.705 83.1891L113.705 83.1885L113.704 83.1868L113.703 83.1753C113.701 83.1644 113.699 83.1472 113.695 83.124C113.688 83.0777 113.678 83.0078 113.663 82.9175C113.635 82.7368 113.592 82.4755 113.534 82.1599C113.418 81.5252 113.248 80.6873 113.027 79.8494C112.801 78.9943 112.542 78.2182 112.27 77.6684C112.178 77.4833 112.1 77.3551 112.041 77.2716C111.611 77.2262 111.292 77.2918 111.041 77.4C110.73 77.5342 110.41 77.7836 110.09 78.2029C109.419 79.0828 108.917 80.4864 108.583 82.1544C108.258 83.782 108.128 85.4742 108.083 86.7787C108.06 87.4263 108.059 87.968 108.063 88.345C108.065 88.5333 108.068 88.68 108.071 88.7776C108.072 88.8264 108.073 88.8629 108.074 88.8861L108.075 88.9109L108.075 88.9152L108.075 88.9157L108.107 89.6281L107.626 90.1552L106.351 88.9913C107.626 90.1552 107.625 90.1564 107.624 90.1576L107.621 90.1601L107.616 90.1654L107.605 90.1776C107.597 90.1864 107.587 90.1964 107.576 90.2076C107.565 90.2193 107.552 90.2322 107.538 90.2463C107.525 90.2595 107.511 90.2738 107.495 90.2891C107.43 90.3524 107.343 90.4331 107.233 90.5267C107.013 90.7142 106.701 90.9539 106.291 91.2117C105.468 91.7289 104.257 92.3128 102.606 92.6961C99.2903 93.4663 94.3494 93.3942 87.4013 90.5924C86.517 90.2358 86.0892 89.2299 86.4458 88.3456C86.8024 87.4613 87.8083 87.0336 88.6926 87.3901C90.1607 87.9821 91.5131 88.4352 92.7557 88.7751V43.2264C88.2034 36.101 83.3929 34.5334 79.592 35.1268ZM96.2085 44.3145V89.4873C98.6345 89.8098 100.481 89.6451 101.825 89.3328C103.079 89.0417 103.935 88.614 104.454 88.2882C104.509 88.2534 104.561 88.2197 104.609 88.1873C104.607 87.7858 104.611 87.2635 104.632 86.6585C104.681 85.2521 104.821 83.3565 105.197 81.4773C105.565 79.6386 106.195 77.6163 107.345 76.1089C107.936 75.3346 108.698 74.65 109.674 74.2294C110.663 73.8029 111.761 73.696 112.927 73.9147C113.67 74.054 114.199 74.4952 114.537 74.8707C114.883 75.2555 115.152 75.7086 115.364 76.1363C115.789 76.9943 116.118 78.0311 116.365 78.9676C116.508 79.5071 116.63 80.0398 116.732 80.5252C116.857 80.4768 116.986 80.4271 117.12 80.3764C118.595 79.8186 120.637 79.13 122.883 78.6215C125.117 78.1157 127.629 77.7702 130.019 77.9498C132.408 78.1292 134.834 78.8472 136.682 80.6262C140.159 83.975 140.567 88.2491 139.517 91.9204C138.491 95.5129 136.028 98.7409 133.371 100.386C127.409 104.077 122.43 103.661 118.408 103.325C117.343 103.237 116.345 103.153 115.414 103.153C115.351 103.153 115.289 103.15 115.228 103.143C108.838 105.88 101.015 106.281 94.9045 106.04C91.7773 105.916 89.0404 105.622 87.0836 105.358C86.1043 105.226 85.3182 105.102 84.7738 105.01C84.5015 104.963 84.2895 104.925 84.1438 104.899C84.071 104.885 84.0147 104.874 83.9757 104.867L83.9304 104.858L83.9137 104.855L83.9124 104.855C83.9119 104.855 83.9115 104.855 84.2471 103.161L83.9115 104.855L82.4626 104.567L82.522 103.092L82.522 103.092L82.5222 103.087L82.5231 103.062C82.5239 103.038 82.525 103.001 82.5263 102.953C82.5289 102.855 82.5319 102.708 82.5337 102.52C82.5374 102.143 82.536 101.602 82.5154 100.956C82.474 99.6538 82.3562 97.9629 82.059 96.3347C81.754 94.6636 81.2934 93.2553 80.6815 92.3763C80.3892 91.9565 80.1124 91.7304 79.8726 91.6171C79.7092 91.5399 79.5033 91.4858 79.2195 91.5032C79.1711 91.5846 79.1111 91.6976 79.0428 91.8488C78.7927 92.4021 78.5561 93.1809 78.3501 94.035C78.1483 94.8722 77.993 95.709 77.8876 96.3423C77.8353 96.6572 77.7959 96.9181 77.7698 97.0987C77.7568 97.1889 77.7471 97.2589 77.7408 97.3054L77.7339 97.3569L77.7323 97.3686L77.7321 97.3706L77.732 97.371L77.4195 99.8134L75.2306 98.687L75.2297 98.6865L75.2264 98.6849L75.205 98.674C75.1847 98.6638 75.1525 98.6477 75.1091 98.6262C75.0223 98.5834 74.8907 98.5194 74.7193 98.4389C74.3763 98.2776 73.8752 98.0506 73.2559 97.7939C72.012 97.2784 70.3158 96.6537 68.4783 96.1979C66.6273 95.7387 64.7181 95.4727 63.021 95.6124C61.3342 95.7512 59.993 96.2756 59.0544 97.2659C56.9274 99.5101 56.5912 102.382 57.3177 105.167C58.0597 108.011 59.8495 110.476 61.514 111.605C64.3507 113.529 66.7306 113.935 68.9337 113.887C70.072 113.862 71.1701 113.716 72.3447 113.56L72.3657 113.557C73.5147 113.405 74.7607 113.239 76.0196 113.239H76.3044L76.5741 113.331C84.5187 116.025 100.195 117.91 114.272 113.324C115.178 113.029 116.153 113.524 116.448 114.431C116.743 115.338 116.248 116.312 115.341 116.607C108.999 118.673 102.378 119.503 96.2085 119.552V157.677C105.12 149.459 113.571 142.906 121.274 137.226C123.874 135.308 126.377 133.498 128.78 131.761C134.237 127.815 139.174 124.245 143.544 120.647C149.805 115.491 154.733 110.404 158.111 104.343C161.475 98.305 163.362 91.1903 163.362 81.8927C163.362 63.3174 154.872 48.3275 142.372 40.7719C129.925 33.2478 113.222 32.9275 96.3449 44.2319C96.3003 44.2618 96.2548 44.2893 96.2085 44.3145ZM94.2661 163.133C94.3369 163.142 94.409 163.146 94.4821 163.146C94.5251 163.146 94.5676 163.145 94.6098 163.142C95.0783 163.176 95.559 163.02 95.9262 162.671C105.673 153.407 114.916 146.204 123.323 140.004C125.852 138.14 128.316 136.358 130.7 134.634C136.205 130.654 141.282 126.982 145.738 123.313C152.155 118.028 157.451 112.621 161.127 106.023C164.817 99.4022 166.815 91.6935 166.815 81.8927C166.815 62.2709 157.824 46.0775 144.158 37.8169C130.662 29.6587 112.876 29.4022 95.2898 40.7924C90.3031 33.3163 84.454 30.8731 79.0594 31.7153C74.4499 32.435 70.5721 35.5088 68.2937 38.9877C65.3365 36.6875 61.7601 34.2506 57.6334 33.0406C52.6128 31.5686 46.9049 31.9446 40.6524 36.1131C34.325 40.3316 30.8341 47.4524 30.6591 54.3925C30.6087 56.3895 30.8339 58.3838 31.3492 60.2972C19.6978 65.5058 14.3967 77.2104 15.4624 88.0542C16.5384 99.002 24.1085 109.171 38.0509 111.151C37.5715 112.274 37.209 113.458 36.9607 114.678C36.0013 119.394 36.7178 124.732 38.9661 129.562C42.1494 136.401 47.9629 139.856 53.3709 141.442C57.5378 142.664 61.6189 142.824 64.3296 142.509C66.0313 150.875 74.8937 163.819 94.1111 163.145C94.1634 163.143 94.2151 163.139 94.2661 163.133ZM79.3322 91.3421C79.3323 91.3424 79.3292 91.3459 79.323 91.3519C79.3291 91.3449 79.3322 91.3419 79.3322 91.3421ZM111.95 77.1598C111.95 77.1596 111.953 77.1615 111.957 77.166C111.953 77.1622 111.951 77.16 111.95 77.1598ZM79.1895 59.3441C80.0246 58.8839 81.0746 59.1879 81.5348 60.023C84.6865 65.7427 84.8242 72.7583 81.2982 77.4807C77.6367 82.3844 70.6316 84.0952 61.0547 80.3771C60.1659 80.032 59.7251 79.0317 60.0702 78.1429C60.4153 77.254 61.4155 76.8132 62.3044 77.1583C71.0706 80.5617 76.1505 78.6038 78.5315 75.4149C81.0479 72.0448 81.1856 66.5439 78.5107 61.6893C78.0505 60.8542 78.3545 59.8042 79.1895 59.3441ZM71.4233 128.32C68.6784 126.889 64.7369 126.579 59.6457 128.31C58.743 128.617 57.7623 128.134 57.4554 127.231C57.1485 126.329 57.6315 125.348 58.5342 125.041C64.2331 123.104 69.2042 123.269 73.0196 125.258C76.8582 127.26 79.2333 130.956 79.9982 135.45C80.1582 136.39 79.526 137.281 78.586 137.441C77.646 137.601 76.7544 136.969 76.5944 136.029C75.9782 132.409 74.1451 129.739 71.4233 128.32Z" fill="white"/>
</svg>
